<?xml version="1.0" standalone="no"?>
<!DOCTYPE svg PUBLIC "-//W3C//DTD SVG 20010904//EN"
 "http://www.w3.org/TR/2001/REC-SVG-20010904/DTD/svg10.dtd">
<svg version="1.0" xmlns="http://www.w3.org/2000/svg"
 width="600.000000pt" height="600.000000pt" viewBox="0 0 600.000000 600.000000"
 preserveAspectRatio="xMidYMid meet">

<g transform="translate(0.000000,600.000000) scale(0.100000,-0.100000)"
fill="#000000" stroke="none">
<path d="M464 5721 c-103 -47 -133 -188 -72 -343 l10 -28 1169 0 1169 0 0
-628 0 -629 -277 -6 c-318 -7 -498 -26 -660 -67 -161 -42 -224 -77 -261 -145
-15 -26 -18 -80 -22 -393 l-5 -362 -245 412 c-304 511 -327 537 -510 584 -119
30 -311 1 -402 -61 l-38 -26 0 -1732 c0 -1667 1 -1734 19 -1773 34 -74 108
-108 237 -107 44 0 113 8 153 18 l73 18 -5 1181 c-3 662 -10 1256 -16 1351
-16 252 -41 577 -46 601 -3 13 1 24 9 27 10 4 46 -53 124 -201 150 -285 402
-739 538 -970 l114 -193 0 -807 c1 -640 4 -815 14 -844 46 -129 205 -207 511
-252 121 -18 437 -36 641 -36 96 0 139 -4 161 -15 56 -28 135 -37 226 -25 126
15 147 25 147 65 0 30 4 34 33 40 62 13 203 57 289 91 l87 35 129 -40 c231
-71 443 -101 711 -101 582 0 1069 149 1183 361 l23 44 3 715 c2 514 0 727 -9
756 -16 59 -60 108 -127 141 l-57 28 -457 3 -457 3 -6 57 c-34 312 -79 481
-186 698 -74 149 -186 300 -313 422 -59 56 -92 94 -84 97 42 16 181 46 256 56
113 15 441 6 542 -15 154 -32 344 -110 517 -212 l95 -56 39 26 c47 31 95 95
110 147 62 204 -245 413 -735 501 -103 18 -160 22 -381 22 -231 1 -273 -2
-380 -22 -184 -35 -289 -67 -454 -137 l-109 -47 -93 31 c-52 18 -111 34 -131
38 l-38 6 0 663 0 664 1169 0 1169 0 31 25 c47 40 64 99 58 197 -2 46 -13 102
-22 126 l-18 42 -2551 0 c-2466 0 -2552 -1 -2592 -19z m2256 -2340 c0 -246 -3
-316 -14 -343 -25 -58 -74 -261 -93 -380 -26 -163 -26 -665 0 -823 21 -128 67
-316 98 -395 11 -30 25 -68 30 -85 11 -38 12 -402 0 -389 -4 5 -71 133 -148
284 -173 339 -253 485 -444 806 l-149 251 0 666 0 665 51 11 c46 10 162 24
284 34 22 2 118 4 213 5 l172 2 0 -309z m862 20 c152 -115 297 -297 372 -467
79 -179 115 -361 123 -619 17 -538 -109 -951 -373 -1225 l-82 -84 -71 58
c-117 96 -233 241 -302 377 l-29 58 0 750 0 750 41 78 c53 102 135 215 211
292 33 33 63 61 67 61 3 0 23 -13 43 -29z m1618 -1957 l0 -555 -34 -14 c-117
-49 -344 -94 -551 -110 -49 -3 -156 -2 -237 4 -128 10 -178 16 -276 37 -20 4
-16 11 52 92 227 267 369 628 402 1022 l7 80 318 0 319 0 0 -556z m-3020 -304
c90 -151 182 -306 205 -345 l42 -70 -31 -3 c-39 -5 -207 14 -313 35 l-83 16 0
330 c0 182 4 327 8 322 5 -6 82 -134 172 -285z"/>
</g>
</svg>
