<?xml version="1.0" standalone="no"?>
<!DOCTYPE svg PUBLIC "-//W3C//DTD SVG 20010904//EN"
 "http://www.w3.org/TR/2001/REC-SVG-20010904/DTD/svg10.dtd">
<svg version="1.0" xmlns="http://www.w3.org/2000/svg"
 width="600.000000pt" height="600.000000pt" viewBox="0 0 600.000000 600.000000"
 preserveAspectRatio="xMidYMid meet">

<g transform="translate(0.000000,600.000000) scale(0.100000,-0.100000)"
fill="#000000" stroke="none">
<path d="M350 3760 l0 -1840 400 0 400 0 0 1145 c0 681 4 1145 9 1145 10 0
114 -124 1148 -1368 l643 -773 0 -859 0 -860 405 0 405 0 0 725 0 725 855 0
855 0 0 335 0 335 -855 0 -855 0 0 425 0 425 960 0 960 0 0 355 0 355 -975 0
-975 0 -2 783 -3 782 -402 3 -403 2 0 -1100 c0 -605 -3 -1100 -8 -1100 -4 0
-423 495 -931 1100 l-924 1100 -354 0 -353 0 0 -1840z"/>
</g>
</svg>
